<?xml version="1.0" encoding="utf-8"?>
<!-- Generator: Adobe Illustrator 17.0.0, SVG Export Plug-In . SVG Version: 6.00 Build 0)  -->
<!DOCTYPE svg PUBLIC "-//W3C//DTD SVG 1.1//EN" "http://www.w3.org/Graphics/SVG/1.1/DTD/svg11.dtd">
<svg version="1.1" id="Layer_1" xmlns="http://www.w3.org/2000/svg" xmlns:xlink="http://www.w3.org/1999/xlink" x="0px" y="0px"
	 width="700px" height="184.667px" viewBox="0 0 700 184.667" enable-background="new 0 0 700 184.667" xml:space="preserve">
<g>
	<g>
		<g>
			<path fill="#FFFFFF" d="M72.723,117.528H31.031l-7.954,19.245H1.782l40.024-89.798h20.525l40.151,89.798H80.676L72.723,117.528z
				 M66.181,101.751L51.94,67.372l-14.239,34.379H66.181z"/>
			<path fill="#FFFFFF" d="M189.716,79.559c0,20.01-15.009,32.453-38.998,32.453H132.63v24.761h-20.781V46.975h38.869
				C174.707,46.975,189.716,59.419,189.716,79.559z M168.678,79.559c0-9.879-6.414-15.651-19.113-15.651H132.63V95.08h16.935
				C162.264,95.08,168.678,89.307,168.678,79.559z"/>
			<path fill="#FFFFFF" d="M204.471,46.975h20.781v89.798h-20.781V46.975z"/>
		</g>
	</g>
	<g>
		<g>
			<path fill="#FFFFFF" d="M359.222,46.975h40.794c29.376,0,49.517,17.702,49.517,44.896c0,27.199-20.141,44.901-49.517,44.901
				h-40.794V46.975z M398.987,119.71c17.833,0,29.505-10.649,29.505-27.838c0-17.189-11.672-27.838-29.505-27.838h-18.983v55.676
				H398.987z"/>
			<path fill="#FFFFFF" d="M506.618,66.729v18.472c-1.669-0.126-2.951-0.257-4.489-0.257c-11.033,0-18.346,6.032-18.346,19.245
				v32.584h-20.013V67.755h19.115v9.109C487.76,70.193,495.97,66.729,506.618,66.729z"/>
			<path fill="#FFFFFF" d="M516.112,46.975c0-6.285,5.003-11.161,12.443-11.161c7.439,0,12.443,4.62,12.443,10.774
				c0,6.672-5.005,11.548-12.443,11.548C521.115,58.137,516.112,53.261,516.112,46.975z M518.549,67.755h20.012v69.019h-20.012
				V67.755z"/>
			<path fill="#FFFFFF" d="M625.664,67.755l-29.12,69.019h-20.653l-28.991-69.019h20.653l19.112,46.952l19.756-46.952H625.664z"/>
			<path fill="#FFFFFF" d="M699.172,107.91h-52.211c1.923,8.592,9.235,13.851,19.756,13.851c7.31,0,12.571-2.178,17.317-6.667
				l10.648,11.543c-6.415,7.311-16.036,11.161-28.479,11.161c-23.861,0-39.384-15.008-39.384-35.534
				c0-20.654,15.779-35.535,36.816-35.535c20.269,0,35.92,13.599,35.92,35.791C699.557,104.058,699.3,106.241,699.172,107.91z
				 M646.704,96.236h33.994c-1.41-8.724-7.954-14.369-16.933-14.369C654.658,81.867,648.114,87.383,646.704,96.236z"/>
		</g>
	</g>
	<g>
		<g>
			<path fill="#FFD900" d="M239.261,151.988l42.997-61.654l-31.3-43.354h22.448l20.269,29.115l46.522-65.42h23.602l-57.425,80.427
				l33.224,45.671h-23.86l-21.293-31.176l-47.498,65.284L239.261,151.988z"/>
		</g>
	</g>
	<polygon fill="#FFD900" points="236.946,172.992 229.465,153.994 1.782,153.994 10.311,172.992 	"/>
</g>
</svg>
